# Alias OBJ Model File
# Exported from SketchUp, (c) 2000-2012 Trimble Navigation Limited
# File units = feet

mtllib dome-with-door-triang.mtl

g Mesh1 Group1 Model

usemtl FrontColor
v 0.356822 0.982247 0.491123
vt 16.97 7.98493
vn 0.125833 0.843889 0.521552
v -7.77156e-16 1.12683 0.343279
vt 13.2237 11.2187
v -1.9984e-15 0.914668 0.686557
vt 12.2576 6.47343
f 1/1/1 2/2/1 3/3/1

usemtl BackColor
vn -0.125833 -0.843889 -0.521552
f 3/3/2 2/2/2 1/1/2

usemtl FrontColor
vt 9.62702 15.8711
vn -0.125833 0.843889 0.521552
v -0.356822 0.982247 0.491123
vt 5.88069 12.6374
vt 10.5932 11.1259
f 2/4/3 4/5/3 3/6/3

vt 5.00161 17.441
vn -0.236269 0.915655 0.325196
v -0.326477 1.12683 0.106079
vt 0.159034 17.441
vt 2.58032 13.1249
f 2/7/4 5/8/4 4/9/4

usemtl BackColor
vn 0.236269 -0.915655 -0.325196
f 4/9/5 5/8/5 2/7/5

usemtl FrontColor
vt -4.85699 17.5332
vn -0.457141 0.843889 0.280843
v -0.652955 0.914668 0.212158
vt -5.82313 12.788
vt -1.11066 14.2995
f 5/10/6 6/11/6 4/12/6

vt -9.87653 14.5334
vn -0.53491 0.843889 0.0414943
v -0.57735 0.982247 -0.187592
vt -13.6229 11.2997
vt -8.91039 9.78818
f 5/13/7 7/14/7 6/15/7

v -0.201774 1.12683 -0.277718
vt -17.2633 9.28379
vn -0.382291 0.915655 -0.124214
vt -14.842 4.96762
vt -12.4207 9.28379
f 8/16/8 7/17/8 5/18/8

vt -17.5606 4.97316
vn -0.408362 0.843889 -0.347982
v -0.403548 0.914668 -0.555436
vt -18.5268 0.227939
vt -13.8143 1.73944
f 8/19/9 9/20/9 7/21/9

usemtl BackColor
vn 0.408362 -0.843889 0.347982
f 7/21/10 9/20/10 8/19/10

usemtl FrontColor
vt -19.1069 4.46377
vn -0.587051 0.700358 -0.406042
v -0.730026 0.70251 -0.449358
vt -15.8314 0.89705
vt -14.2902 5.59988
f 9/22/11 10/23/11 7/24/11

usemtl BackColor
vn 0.587051 -0.700358 0.406042
f 7/24/12 10/23/12 9/22/12

usemtl FrontColor
vt -17.2633 5.00863
vn -0.73967 0.628592 -0.240333
v -0.854729 0.70251 -0.0655604
vt -12.4207 5.00863
vt -14.842 9.3248
f 10/25/13 11/26/13 7/27/13

usemtl BackColor
vn 0.73967 -0.628592 0.240333
f 7/27/14 11/26/14 10/25/14

usemtl FrontColor
vt -14.1463 11.5636
vn -0.7136 0.700358 -0.0165654
vt -12.605 6.86075
vt -9.3295 10.4275
f 7/28/15 11/29/15 6/30/15

usemtl BackColor
vn 0.7136 -0.700358 0.0165654
f 6/30/16 11/29/16 7/28/16

usemtl FrontColor
vt 12.1827 8.83926
vn 0.796265 -0.591548 -0.126618
vt 8.51116 11.9969
v -0.850651 0.634806 0.276393
vt 8.12246 7.83159
f 11/31/17 6/32/17 12/33/17

usemtl BackColor
vn -0.796265 0.591548 0.126618
f 12/33/18 6/32/18 11/31/18

usemtl FrontColor
vt 6.45997 13.394
vn 0.718617 -0.591548 -0.365597
v -0.652955 0.70251 0.555436
vt 2.78846 10.2363
vt 6.84867 9.22868
f 6/34/19 13/35/19 12/36/19

usemtl BackColor
vn -0.718617 0.591548 0.365597
f 12/36/20 13/35/20 6/34/20

usemtl FrontColor
vt 6.49584 9.18817
vn 0.796265 -0.377799 -0.472471
vt 2.40552 10.0657
v -0.854729 0.359232 0.489876
vt 4.31766 5.61658
f 12/37/21 13/38/21 14/39/21

usemtl BackColor
vn -0.796265 0.377799 0.472471
f 14/39/22 13/38/22 12/37/22

usemtl FrontColor
vt -3.42376 5.61905
vn -0.7136 0.298393 0.633827
v -0.57735 0.375185 0.794654
vt 1.52111 5.81962
vt -1.22762 9.93501
f 14/40/23 15/41/23 13/42/23

usemtl BackColor
vn 0.7136 -0.298393 -0.633827
f 13/42/24 15/41/24 14/40/24

usemtl FrontColor
v -0.326477 0.70251 0.792636
vt 5.00161 10.3439
vn -0.53491 0.414512 0.736241
vt 0.159034 10.3439
vt 2.58032 6.0277
f 16/43/25 13/44/25 15/45/25

vt 2.58032 14.9247
vn -0.457141 0.628592 0.629201
vt 0.159034 10.6085
vt 5.00161 10.6085
f 4/46/26 13/47/26 16/48/26

vt -0.155624 15.0771
vn -0.567577 0.700358 0.432845
vt -4.97239 13.941
vt -1.69686 10.3743
f 4/49/27 6/50/27 13/51/27

usemtl BackColor
vn 0.567577 -0.700358 -0.432845
f 13/51/28 6/50/28 4/49/28

vn 0.457141 -0.843889 -0.280843
f 4/12/29 6/11/29 5/10/29

vn 0.53491 -0.843889 -0.0414943
f 6/15/30 7/14/30 5/13/30

vn 0.382291 -0.915655 0.124214
f 5/18/31 7/17/31 8/16/31

usemtl FrontColor
v 0 1.18759 -0
vt 14.842 10.4076
vn 0.203287 -0.976889 0.0660521
vt 12.4207 6.99611
vt 17.2633 6.99611
f 17/52/32 5/53/32 8/54/32

usemtl BackColor
vn -0.203287 0.976889 -0.0660521
f 8/54/33 5/53/33 17/52/33

usemtl FrontColor
vt -2.58032 19.1103
vn 0.125638 -0.976889 -0.172927
vt -5.00161 15.6989
vt -0.159034 15.6989
f 17/55/34 2/56/34 5/57/34

usemtl BackColor
vn -0.125638 0.976889 0.172927
f 5/57/35 2/56/35 17/55/35

usemtl FrontColor
v 0.326477 1.12683 0.106079
vt -18.858 2.20148
vn -0.125638 -0.976889 -0.172927
vt -14.0154 2.20148
vt -16.4367 5.61294
f 18/58/36 2/59/36 17/60/36

vt 16.4367 0.473521
vn 0.236269 0.915655 0.325196
vt 18.858 4.78969
vt 14.0154 4.78969
f 1/61/37 18/62/37 2/63/37

v 0.652955 0.914668 0.212158
vt 18.1277 -4.11403
vn 0.457141 0.843889 0.280843
vt 17.1615 0.631192
vt 13.4152 -2.60253
f 19/64/38 18/65/38 1/66/38

usemtl BackColor
vn -0.457141 -0.843889 -0.280843
f 1/66/39 18/65/39 19/64/39

vn -0.236269 -0.915655 -0.325196
f 2/63/40 18/62/40 1/61/40

vn 0.125638 0.976889 0.172927
f 17/60/41 2/59/41 18/58/41

usemtl FrontColor
vt -5.15685 -14.8431
vn -0.203287 -0.976889 0.0660521
vt -7.57813 -11.4316
v 0.201774 1.12683 -0.277718
vt -9.99942 -14.8431
f 18/67/42 17/68/42 20/69/42

usemtl BackColor
vn 0.203287 0.976889 -0.0660521
f 20/69/43 17/68/43 18/67/43

usemtl FrontColor
vt 14.1745 -11.8799
vn 3.5723e-16 -0.976889 0.213749
vt 11.7532 -8.46839
vt 9.3319 -11.8799
f 20/70/44 17/71/44 8/72/44

usemtl BackColor
vn -3.5723e-16 0.976889 -0.213749
f 8/72/45 17/71/45 20/70/45

usemtl FrontColor
vt -14.1745 -8.40899
vn -3.2647e-16 0.915655 -0.401965
v 0 0.982247 -0.607062
vt -11.7532 -12.7252
vt -9.3319 -8.40899
f 20/73/46 21/74/46 8/75/46

v 0.403548 0.914668 -0.555436
vt -8.29739 -13.8491
vn 0.20476 0.843889 -0.495907
vt -3.58492 -12.3376
vt -7.33126 -9.10388
f 22/76/47 21/77/47 20/78/47

vt -10.605 -7.87961
vn 0.20476 0.700358 -0.683793
v 0.201774 0.70251 -0.833155
vt -7.32951 -11.4463
vt -5.78827 -6.7435
f 22/79/48 23/80/48 21/81/48

usemtl BackColor
vn -0.20476 -0.700358 0.683793
f 21/81/49 23/80/49 22/79/49

usemtl FrontColor
vt -11.7532 -2.82119
vn -6.44633e-18 0.628592 -0.777735
vt -14.1745 -7.13736
v -0.201774 0.70251 -0.833155
vt -9.3319 -7.13736
f 21/82/50 23/83/50 24/84/50

usemtl BackColor
vn 6.44633e-18 -0.628592 0.777735
f 24/84/51 23/83/51 21/82/51

usemtl FrontColor
vt -14.1745 -1.3583
vn -9.02943e-18 0.414512 -0.910044
v 3.9968e-15 0.375185 -0.982247
vt -11.7532 -5.67447
vt -9.3319 -1.3583
f 23/85/52 25/86/52 24/87/52

vt -9.17088 0.789605
vn 0.20476 0.298393 -0.93222
v 0.403548 0.359232 -0.898715
vt -11.367 -3.52636
vt -6.42214 -3.32578
f 23/88/53 26/89/53 25/90/53

vt 4.39408 -1.8724
vn -0.366481 -0.377799 0.85027
vt 6.30622 -6.32148
v 0.525731 0.634806 -0.723607
vt 8.4844 -2.74989
f 23/91/54 26/92/54 27/93/54

usemtl BackColor
vn 0.366481 0.377799 -0.85027
f 27/93/55 26/92/55 23/91/55

usemtl FrontColor
vt 2.58032 0.706836
vn -0.569768 -0.245695 0.784218
vt 0.159034 -2.70463
v 0.730026 0.359232 -0.661515
vt 5.00161 -2.70463
f 27/94/56 26/95/56 28/96/56

usemtl BackColor
vn 0.569768 0.245695 -0.784218
f 28/96/57 26/95/57 27/94/57

usemtl FrontColor
vt -5.00161 2.9056
vn 0.587051 0.0499651 -0.808007
v 0.57735 0 -0.794654
vt -2.58032 -1.41057
vt -0.159034 2.9056
f 28/97/58 29/98/58 26/99/58

vt 3.26789 1.8629
vn 0.73967 -0.0661543 -0.66971
vt 0.853874 6.18314
v 0.854729 0.0159532 -0.489876
vt -1.67733 2.05475
f 29/100/59 28/101/59 30/102/59

usemtl BackColor
vn -0.73967 0.0661543 0.66971
f 30/102/60 28/101/60 29/100/60

vn -0.587051 -0.0499651 0.808007
f 26/99/61 29/98/61 28/97/61

usemtl FrontColor
vt -5.90469 6.11308
vn 0.408362 -0.0661543 -0.91042
vt -8.31871 1.79284
v 0.201774 0.0159532 -0.964275
vt -3.37349 1.9847
f 26/103/62 29/104/62 31/105/62

usemtl BackColor
vn -0.408362 0.0661543 0.91042
f 31/105/63 29/104/63 26/103/63

usemtl FrontColor
vt -6.66547 2.80647
vn 0.20476 0.0661543 -0.976574
vt -11.6107 2.61462
vt -9.07948 -1.51377
f 25/106/64 26/107/64 31/108/64

usemtl BackColor
vn -0.20476 -0.0661543 0.976574
f 31/108/65 26/107/65 25/106/65

vn -0.20476 -0.298393 0.93222
f 25/90/66 26/89/66 23/88/66

vn 9.02943e-18 -0.414512 0.910044
f 24/87/67 25/86/67 23/85/67

usemtl FrontColor
vt -13.7882 2.29437
vn -0.20476 0.298393 -0.93222
vt -16.5369 -1.82102
v -0.403548 0.359232 -0.898715
vt -11.5921 -2.02159
f 24/109/68 25/110/68 32/111/68

usemtl BackColor
vn 0.20476 -0.298393 0.93222
f 32/111/69 25/110/69 24/109/69

usemtl FrontColor
vt -16.3406 3.12558
vn -0.20476 0.0661543 -0.976574
v -0.201774 0.0159532 -0.964275
vt -13.9266 -1.19466
vt -11.3954 2.93373
f 25/112/70 33/113/70 32/114/70

usemtl BackColor
vn 0.20476 -0.0661543 0.976574
f 32/114/71 33/113/71 25/112/71

usemtl FrontColor
vt -15.543 5.47667
vn -0.408362 -0.0661543 -0.91042
vt -18.0742 1.34828
v -0.57735 0 -0.794654
vt -13.1289 1.15642
f 32/115/72 33/116/72 34/117/72

usemtl BackColor
vn 0.408362 0.0661543 0.91042
f 34/117/73 33/116/73 32/115/73

usemtl FrontColor
vt -18.858 3.59595
vn -0.587051 0.0499651 -0.808007
vt -16.4367 -0.72022
v -0.730026 0.359232 -0.661515
vt -14.0154 3.59595
f 32/118/74 34/119/74 35/120/74

usemtl BackColor
vn 0.587051 -0.0499651 0.808007
f 35/120/75 34/119/75 32/118/75

usemtl FrontColor
vt -19.0449 0.710149
vn -0.73967 -0.0661543 -0.66971
v -0.854729 0.0159532 -0.489876
vt -14.0997 0.902007
vt -16.6309 5.03039
f 34/121/76 36/122/76 35/123/76

usemtl BackColor
vn 0.73967 0.0661543 0.66971
f 35/123/77 36/122/77 34/121/77

usemtl FrontColor
vt -18.5989 3.82375
vn -0.865503 0.0661543 -0.496516
vt -16.0677 -0.304638
v -0.934172 0.375185 -0.303531
vt -13.6537 4.01561
f 35/124/78 36/125/78 37/126/78

usemtl BackColor
vn 0.865503 -0.0661543 0.496516
f 37/126/79 36/125/79 35/124/79

usemtl FrontColor
vt -17.2633 0.392845
vn -0.949869 -0.0499651 -0.308631
v -0.979432 0.0159532 -0.106079
vt -12.4207 0.392845
vt -14.842 4.70902
f 36/127/80 38/128/80 37/129/80

usemtl BackColor
vn 0.949869 0.0499651 0.308631
f 37/129/81 38/128/81 36/127/81

usemtl FrontColor
vt -15.3986 4.41858
vn -0.992051 0.0661543 -0.10704
vt -12.9845 0.0983364
v -0.979432 0.359232 0.106079
vt -10.4533 4.22672
f 37/130/82 38/131/82 39/132/82

usemtl BackColor
vn 0.992051 -0.0661543 0.10704
f 39/132/83 38/131/83 37/130/83

usemtl FrontColor
vn -0.992051 -0.0661543 0.10704
v -0.934172 0 0.303531
vt -8.03933 -0.0935219
f 38/131/84 40/133/84 39/132/84

usemtl BackColor
vn 0.992051 0.0661543 -0.10704
f 39/132/85 40/133/85 38/131/85

usemtl FrontColor
vt -9.99942 4.46773
vn -0.949869 0.0499651 0.308631
vt -7.57813 0.151562
vt -5.15685 4.46773
f 39/134/86 40/135/86 14/136/86

usemtl BackColor
vn 0.949869 -0.0499651 -0.308631
f 14/136/87 40/135/87 39/134/87

usemtl FrontColor
vt -6.79439 -0.299275
vn -0.865503 -0.0661543 0.496516
v -0.730026 0.0159532 0.661515
vt -1.84917 -0.107417
vt -4.38037 4.02097
f 40/137/88 41/138/88 14/139/88

usemtl BackColor
vn 0.865503 0.0661543 -0.496516
f 14/139/89 41/138/89 40/137/89

usemtl FrontColor
vt -3.37552 4.63707
vt -0.844314 0.50868
vt 1.5697 4.82893
f 14/140/60 41/141/60 15/142/60

usemtl BackColor
f 15/142/59 41/141/59 14/140/59

usemtl FrontColor
vt 2.58032 4.2639
vt 0.159034 -0.0522757
v -0.403548 0.0159532 0.898715
vt 5.00161 -0.0522757
f 15/143/61 41/144/61 42/145/61

usemtl BackColor
f 42/145/58 41/144/58 15/143/58

usemtl FrontColor
vt 3.48112 4.75887
vt 5.89513 0.438622
v -0.201774 0.359232 0.964275
vt 8.42634 4.56701
f 15/146/63 42/147/63 43/148/63

usemtl BackColor
f 43/148/62 42/147/62 15/146/62

usemtl FrontColor
vt 9.08904 4.16069
vt 6.55784 0.0323032
v -1.27676e-14 0 0.982247
vt 11.5031 -0.159555
f 43/149/65 42/150/65 44/151/65

usemtl BackColor
f 44/151/64 42/150/64 43/149/64

usemtl FrontColor
vt 9.3319 4.31617
vn 7.68983e-16 0.0499651 0.998751
vt 11.7532 -4.52149e-16
v 0.201774 0.359232 0.964275
vt 14.1745 4.31617
f 43/152/90 44/153/90 45/154/90

usemtl BackColor
vn -7.68983e-16 -0.0499651 -0.998751
f 45/154/91 44/153/91 43/152/91

usemtl FrontColor
vt 13.9171 4.4798
vt 11.5031 0.159555
v 0.403548 0.0159532 0.898715
vt 16.4483 0.351413
f 45/155/71 44/156/71 46/157/71

usemtl BackColor
f 46/157/70 44/156/70 45/155/70

usemtl FrontColor
v 0.57735 0.375185 0.794654
vt 17.9665 4.12245
vt 13.0213 3.93059
vt 15.5525 -0.197794
f 47/158/73 45/159/73 46/160/73

usemtl BackColor
f 46/160/72 45/159/72 47/158/72

usemtl FrontColor
v 0.326477 0.70251 0.792636
vt 15.2703 6.79522
vn 0.382291 0.298393 0.874537
vt 13.0742 2.47925
vt 18.019 2.67983
f 48/161/92 45/162/92 47/163/92

usemtl BackColor
vn -0.382291 -0.298393 -0.874537
f 47/163/93 45/162/93 48/161/93

usemtl FrontColor
vt -15.7881 7.3441
vn -0.203287 -0.377799 -0.903295
vt -13.876 2.89502
v 0 0.634806 0.894427
vt -11.6978 6.46661
f 48/164/94 45/165/94 49/166/94

usemtl BackColor
vn 0.203287 0.377799 0.903295
f 49/166/95 45/165/95 48/164/95

usemtl FrontColor
vt -11.7532 7.64309
vn -8.91998e-16 -0.245695 -0.969347
vt -14.1745 4.23163
vt -9.3319 4.23163
f 49/167/96 45/168/96 43/169/96

usemtl BackColor
vn 8.91998e-16 0.245695 0.969347
f 43/169/97 45/168/97 49/167/97

usemtl FrontColor
vt -7.14469 9.29394
vn 0.203287 -0.377799 -0.903295
vt -11.235 8.41645
vt -9.05684 4.84486
f 16/170/98 49/171/98 43/172/98

vt -11.0567 12.0064
vn 0.125638 -0.591548 -0.796421
vt -11.4454 7.84108
vt -7.38518 8.84874
f 3/173/99 49/174/99 16/175/99

usemtl BackColor
vn -0.125638 0.591548 0.796421
f 16/175/100 49/174/100 3/173/100

vn -0.203287 0.377799 0.903295
f 43/172/101 49/171/101 16/170/101

usemtl FrontColor
vt 6.26811 9.60465
vn -0.382291 0.298393 0.874537
vt 3.51938 5.48926
vt 8.46425 5.28869
f 16/176/102 15/177/102 43/178/102

usemtl BackColor
vn 0.382291 -0.298393 -0.874537
f 43/178/103 15/177/103 16/176/103

vn 0.53491 -0.414512 -0.736241
f 15/45/104 13/44/104 16/43/104

vn 0.457141 -0.628592 -0.629201
f 16/48/105 13/47/105 4/46/105

usemtl FrontColor
vt 9.91614 12.9042
vn -0.236269 0.700358 0.673555
vt 5.09938 14.0403
vt 6.64062 9.3375
f 3/179/106 4/180/106 16/181/106

usemtl BackColor
vn 0.236269 -0.700358 -0.673555
f 16/181/107 4/180/107 3/179/107

vn 0.125833 -0.843889 -0.521552
f 3/6/108 4/5/108 2/4/108

usemtl FrontColor
vt -12.1625 9.83957
vn -0.125638 -0.591548 -0.796421
vt -15.834 6.68195
vt -11.7738 5.67428
f 3/182/109 48/183/109 49/184/109

vt 17.0819 8.59103
vn 0.236269 0.700358 0.673555
vt 12.2651 7.45492
vt 15.5407 3.8882
f 1/185/110 3/186/110 48/187/110

usemtl BackColor
vn -0.236269 -0.700358 -0.673555
f 48/187/111 3/186/111 1/185/111

vn 0.125638 0.591548 0.796421
f 49/184/112 48/183/112 3/182/112

usemtl FrontColor
vt 16.4367 6.23963
vn 0.457141 0.628592 0.629201
vt 14.0154 1.92346
v 0.652955 0.70251 0.555436
vt 18.858 1.92346
f 1/188/113 48/189/113 50/190/113

usemtl BackColor
vn -0.457141 -0.628592 -0.629201
f 50/190/114 48/189/114 1/188/114

usemtl FrontColor
vt 18.858 4.61668
vn 0.53491 0.414512 0.736241
vt 14.0154 4.61668
vt 16.4367 0.300507
f 50/191/115 48/192/115 47/193/115

usemtl BackColor
vn -0.53491 -0.414512 -0.736241
f 47/193/116 48/192/116 50/191/116

usemtl FrontColor
v 0.854729 0.359232 0.489876
vt 19.0339 0.374853
vn 0.7136 0.298393 0.633827
vt 16.8378 4.69082
vt 14.089 0.575429
f 51/194/117 50/195/117 47/196/117

usemtl BackColor
vn -0.7136 -0.298393 -0.633827
f 47/196/118 50/195/118 51/194/118

usemtl FrontColor
v 0.850651 0.634806 0.276393
vt -18.4909 1.55076
vn -0.796265 -0.377799 -0.472471
vt -16.3127 -2.02083
vt -14.4006 2.42824
f 52/197/119 51/198/119 50/199/119

v 0.979432 0.359232 0.106079
vt -17.2633 -0.51582
vn -0.921904 -0.245695 -0.299545
vt -12.4207 -0.51582
vt -14.842 2.89564
f 53/200/120 51/201/120 52/202/120

usemtl BackColor
vn 0.921904 0.245695 0.299545
f 52/202/121 51/201/121 53/200/121

vn 0.796265 0.377799 0.472471
f 50/199/122 51/198/122 52/197/122

usemtl FrontColor
vt -17.1188 1.00051
vn -0.718617 -0.591548 -0.365597
vt -17.5075 -3.16478
vt -13.4472 -2.15711
f 19/203/123 52/204/123 50/205/123

v 0.854729 0.70251 -0.0655604
vt -15.8742 -4.89336
vn -0.796265 -0.591548 -0.126618
vt -11.8139 -5.90102
vt -12.2026 -1.73574
f 54/206/124 52/207/124 19/208/124

usemtl BackColor
vn 0.796265 0.591548 0.126618
f 19/208/125 52/207/125 54/206/125

vn 0.718617 0.591548 0.365597
f 50/205/126 52/204/126 19/203/126

usemtl FrontColor
vt 15.9512 -2.71628
vn 0.567577 0.700358 0.432845
vt 19.2267 0.850441
vt 14.4099 1.98655
f 50/209/127 19/210/127 1/211/127

usemtl BackColor
vn -0.567577 -0.700358 -0.432845
f 1/211/128 19/210/128 50/209/128

usemtl FrontColor
vt -14.5591 -0.0340268
vn -0.921904 -0.377799 -0.0857958
vt -12.647 -4.4831
vt -10.4688 -0.911511
f 54/212/129 53/213/129 52/214/129

usemtl BackColor
vn 0.921904 0.377799 0.0857958
f 52/214/130 53/213/130 54/212/130

usemtl FrontColor
v 0.57735 0.982247 -0.187592
vt 13.6007 -4.89487
vn 0.7136 0.700358 -0.0165654
vt 8.78397 -6.03097
vt 12.0595 -9.59769
f 55/215/131 19/216/131 54/217/131

usemtl BackColor
vn -0.7136 -0.700358 0.0165654
f 54/217/132 19/216/132 55/215/132

usemtl FrontColor
vt 10.7284 -9.98918
vn 0.53491 0.843889 0.0414943
vt 15.4408 -8.47768
vt 11.6945 -5.24395
f 19/218/133 55/219/133 18/220/133

usemtl BackColor
vn -0.53491 -0.843889 -0.0414943
f 18/220/134 55/219/134 19/218/134

usemtl FrontColor
vt 7.57813 -15.5027
vn 0.382291 0.915655 -0.124214
vt 9.99942 -11.1865
vt 5.15685 -11.1865
f 55/221/135 20/222/135 18/223/135

usemtl BackColor
vn -0.382291 -0.915655 0.124214
f 18/223/136 20/222/136 55/221/136

usemtl FrontColor
vt -1.43178 -13.359
vn 0.408362 0.843889 -0.347982
vt 3.28069 -14.8705
vt 2.31455 -10.1253
f 55/224/137 22/225/137 20/226/137

v 0.730026 0.70251 -0.449358
vt 2.45978 -12.6427
vn 0.587051 0.700358 -0.406042
vt 5.73531 -9.07596
vt 0.918538 -7.93985
f 56/227/138 22/228/138 55/229/138

usemtl BackColor
vn -0.587051 -0.700358 0.406042
f 55/229/139 22/228/139 56/227/139

vn -0.408362 -0.843889 0.347982
f 20/226/140 22/225/140 55/224/140

vn -0.20476 -0.843889 0.495907
f 20/78/141 21/77/141 22/76/141

vn 3.2647e-16 -0.915655 0.401965
f 8/75/142 21/74/142 20/73/142

usemtl FrontColor
vt -18.1422 -4.76698
vn -0.20476 0.843889 -0.495907
vt -13.4297 -6.27847
vt -14.3959 -1.53325
f 21/230/143 9/231/143 8/232/143

vt -16.7302 -2.02093
vn -0.20476 0.700358 -0.683793
vt -15.1889 -6.72375
vt -11.9134 -3.15703
f 21/233/144 24/234/144 9/235/144

usemtl BackColor
vn 0.20476 -0.700358 0.683793
f 9/235/145 24/234/145 21/233/145

usemtl FrontColor
vt 14.5427 0.985155
vn 0.366481 -0.591548 0.718166
v -0.525731 0.634806 -0.723607
vt 14.154 -3.18013
vt 18.2142 -2.17247
f 9/236/146 57/237/146 24/238/146

vt 17.9292 4.0154
vn 0.569768 -0.591548 0.570469
vt 14.2577 0.857779
vt 18.3179 -0.149888
f 9/239/147 10/240/147 57/241/147

usemtl BackColor
vn -0.569768 0.591548 -0.570469
f 57/241/148 10/240/148 9/239/148

usemtl FrontColor
vt 18.9691 3.49206
vn 0.695406 -0.377799 0.611292
vt 14.8788 4.36954
vt 16.7909 -0.0795337
f 57/242/149 10/243/149 35/244/149

usemtl BackColor
vn -0.695406 0.377799 -0.611292
f 35/244/150 10/243/150 57/242/150

usemtl FrontColor
vt -18.5292 1.90737
vn -0.82332 0.298393 -0.48281
vt -13.5844 2.10795
vt -16.3331 6.22334
f 35/245/151 37/246/151 10/247/151

usemtl BackColor
vn 0.82332 -0.298393 0.48281
f 10/247/152 37/246/152 35/245/152

usemtl FrontColor
vt -17.2633 6.65113
vn -0.865503 0.414512 -0.281219
vt -14.842 2.33496
vt -12.4207 6.65113
f 10/248/153 37/249/153 11/250/153

usemtl BackColor
vn 0.865503 -0.414512 0.281219
f 11/250/154 37/249/154 10/248/154

usemtl FrontColor
vt -15.4085 4.00818
vn -0.949869 0.298393 -0.0933339
vt -10.4636 3.8076
vt -12.6598 8.12357
f 37/251/155 39/252/155 11/253/155

usemtl BackColor
vn 0.949869 -0.298393 0.0933339
f 11/253/156 39/252/156 37/251/156

usemtl FrontColor
vt 12.3809 8.80845
vn 0.921904 -0.377799 -0.0857958
vt 8.2906 7.93097
vt 10.4688 4.35937
f 11/254/157 12/255/157 39/256/157

usemtl BackColor
vn -0.921904 0.377799 0.0857958
f 39/256/158 12/255/158 11/254/158

usemtl FrontColor
vt 9.99942 4.97691
vn 0.921904 -0.245695 -0.299545
vt 7.57813 8.38837
vt 5.15685 4.97691
f 39/257/159 12/258/159 14/259/159

usemtl BackColor
vn -0.921904 0.245695 0.299545
f 14/259/160 12/258/160 39/257/160

usemtl FrontColor
vt 16.4367 4.10153
vn 0.569768 -0.245695 0.784218
vt 14.0154 0.690067
vt 18.858 0.690067
f 57/260/161 35/261/161 32/262/161

usemtl BackColor
vn -0.569768 0.245695 -0.784218
f 32/262/162 35/261/162 57/260/162

usemtl FrontColor
vt 17.1925 1.64271
vn 0.366481 -0.377799 0.85027
vt 13.1022 0.765225
vt 15.2804 -2.80637
f 24/263/163 57/264/163 32/265/163

usemtl BackColor
vn -0.366481 0.591548 -0.718166
f 24/238/164 57/237/164 9/236/164

vn -0.366481 0.377799 -0.85027
f 32/265/165 57/264/165 24/263/165

vn 0.20476 -0.843889 0.495907
f 8/232/166 9/231/166 21/230/166

usemtl FrontColor
vt 2.37406 -8.9686
vn -0.569768 -0.591548 0.570469
vt -1.29745 -5.81097
vt -1.68616 -9.97626
f 56/266/167 22/267/167 27/268/167

usemtl BackColor
vn 0.569768 0.591548 -0.570469
f 27/268/168 22/267/168 56/266/168

usemtl FrontColor
vt 6.39506 -5.33527
vn -0.366481 -0.591548 0.718166
vt 2.72355 -8.49289
vt 6.78376 -9.50056
f 22/269/169 23/270/169 27/271/169

usemtl BackColor
vn 0.366481 0.591548 -0.718166
f 27/271/170 23/270/170 22/269/170

usemtl FrontColor
vt -3.44968 -3.17796
vn -0.695406 -0.377799 0.611292
vt -1.2715 -6.74955
vt 0.640645 -2.30048
f 27/272/171 28/273/171 56/274/171

usemtl BackColor
vn 0.695406 0.377799 -0.611292
f 56/274/172 28/273/172 27/272/172

usemtl FrontColor
vt 9.99942 -9.04411
vn 0.73967 0.628592 -0.240333
vt 7.57813 -4.72793
vt 5.15685 -9.04411
f 56/275/173 55/276/173 54/277/173

usemtl BackColor
vn -0.73967 -0.628592 0.240333
f 54/277/174 55/276/174 56/275/174

usemtl FrontColor
vt 17.2633 3.35072
vt 12.4207 3.35072
v 0.934172 0 0.303531
vt 14.842 -0.965452
f 53/278/81 51/279/81 58/280/81

usemtl BackColor
f 58/280/80 51/279/80 53/278/80

usemtl FrontColor
vt 18.4913 1.04958
vt 16.0773 5.36982
v 0.730026 0.0159532 0.661515
vt 13.5461 1.24144
f 58/281/79 51/282/79 59/283/79

usemtl BackColor
f 59/283/78 51/282/78 58/281/78

usemtl FrontColor
vt 19.1525 3.48432
vt 14.2073 3.67618
vt 16.6213 -0.644067
f 51/284/77 47/285/77 59/286/77

usemtl BackColor
f 59/286/76 47/285/76 51/284/76

usemtl FrontColor
vt 16.4367 4.95425
vt 14.0154 0.638077
vt 18.858 0.638077
f 47/287/75 46/288/75 59/289/75

usemtl BackColor
f 59/289/74 46/288/74 47/287/74

usemtl FrontColor
v 0.979432 0.0159532 -0.106079
vt 15.5062 1.64441
vt 12.975 5.7728
vt 10.561 1.45255
f 60/290/83 53/291/83 58/292/83

usemtl BackColor
f 58/292/82 53/291/82 60/290/82

usemtl FrontColor
vt -11.7532 5.67447
vn 1.23547e-18 -0.0499651 -0.998751
vt -14.1745 1.3583
vt -9.3319 1.3583
f 25/293/175 31/294/175 33/295/175

usemtl BackColor
vn -1.23547e-18 0.0499651 0.998751
f 33/295/176 31/294/176 25/293/176

